<?xml version="1.0" encoding="UTF-8"?>
<svg id="Calque_2" data-name="Calque 2" xmlns="http://www.w3.org/2000/svg" viewBox="0 0 98.46 91.6">
  <defs>
    <style>
      .cls-1 {
        fill: #73a9bf;
      }
    </style>
  </defs>
  <g id="Calque_1-2" data-name="Calque 1">
    <g>
      <g>
        <path class="cls-1" d="M42.29,45.44l4.77-.28-.03,2c-.23,1.59-.65,2.97-1.26,4.14-.3.58-.63,1.08-.98,1.47-.35.4-.72.7-1.12.89-.4.2-.81.3-1.23.3h-.07c-1.4-.02-2.47-1.11-3.19-3.26-.72-2.08-1.06-5.05-1.02-8.9.05-3.86.47-6.89,1.26-9.12.7-1.94,1.68-3.27,2.94-4,.42-.23.86-.39,1.33-.47.47-.08.88-.11,1.23-.07s.69.11,1.03.21c.34.11.57.19.68.25.12.06.22.11.32.16l-1.05,1.72h.04s-.11-.05-.18-.09-.2-.08-.4-.12c-.2-.05-.4-.08-.6-.11-.2-.02-.43-.01-.7.03-.27.05-.52.14-.75.28-.33.19-.65.49-.96.91-.32.42-.64,1.03-.98,1.84-.34.81-.62,1.95-.84,3.42-.22,1.47-.33,3.2-.33,5.19-.02,1.54.02,2.93.12,4.17.11,1.24.25,2.22.42,2.94.18.72.37,1.32.6,1.79.22.47.42.78.6.95.18.16.33.26.47.28h.03c.19,0,.43-.14.72-.42s.57-.67.82-1.16c.47-.86.79-1.89.98-3.09l-2.52.14-.14-2Z"/>
        <path class="cls-1" d="M57.68,30.82c1.75,1.82,2.51,5.18,2.28,10.06-.3,7.01-1.5,11.27-3.58,12.76-.51.35-1.04.53-1.58.53h-.25c-.77,0-1.52-.3-2.24-.91-1.99-1.68-3.06-5.39-3.23-11.11-.14-5.26.82-8.93,2.87-11.01.47-.47.97-.83,1.51-1.09.54-.26.92-.4,1.16-.44.23-.03.43-.04.6-.02.86,0,1.68.41,2.45,1.23ZM57.96,40.82c.16-3.86-.29-6.57-1.37-8.13-.44-.65-.91-1.02-1.4-1.09-.7.05-1.38.46-2.03,1.23-1.47,1.75-2.15,4.84-2.03,9.26.14,5.14.97,8.36,2.49,9.64.35.28.63.42.84.42l.42.04h-.07c.14,0,.32-.1.54-.3.22-.2.44-.49.65-.88.21-.39.46-.97.75-1.75.29-.78.54-1.9.75-3.37.21-1.46.36-3.15.46-5.07Z"/>
        <path class="cls-1" d="M74.05,39.13c.09,3.09-.25,5.71-1.02,7.89-.68,1.92-1.66,3.45-2.94,4.59-1.64,1.45-3.49,2.17-5.57,2.17-.28,0-.55-.01-.81-.03h-.49v-23.45c.12-.05.26-.11.42-.18.16-.07.44-.17.84-.3.4-.13.82-.22,1.26-.26.44-.05.93-.08,1.45-.09.53-.01,1.07.06,1.63.21.56.15,1.09.38,1.58.68,2.31,1.43,3.53,4.35,3.65,8.76ZM68.75,50.11c2.34-2.08,3.44-5.71,3.3-10.9-.05-2.06-.35-3.7-.91-4.94-.44-1-1.04-1.73-1.79-2.17-1.08-.68-2.45-.79-4.14-.35v20.02c1.33-.19,2.51-.74,3.54-1.65Z"/>
        <path class="cls-1" d="M81.02,40.82c.56,1.31.98,2.3,1.24,2.98.27.68.53,1.49.77,2.44.25.95.36,1.74.33,2.37-.07,1.1-.39,2.03-.96,2.79-.57.76-1.35,1.27-2.33,1.53-.37.09-.75.14-1.12.14-.63,0-1.21-.12-1.74-.37-.53-.25-.93-.58-1.21-1l1.68-1.09c.12.16.34.29.68.39.34.09.74.08,1.21-.03,1.1-.28,1.68-1.1,1.75-2.45.02-.3,0-.67-.09-1.1-.08-.43-.18-.84-.3-1.23s-.29-.88-.53-1.49c-.23-.61-.43-1.09-.58-1.46-.15-.36-.38-.89-.68-1.6-.37-.89-.65-1.56-.84-2.02-.19-.46-.42-1.03-.68-1.74-.27-.7-.47-1.33-.6-1.88-.13-.55-.2-1.06-.23-1.53-.12-1.61.3-2.86,1.26-3.75.56-.51,1.28-.86,2.16-1.05.88-.19,1.51-.27,1.91-.26.4.01.72.04.98.09l-.14,1.02-.18.98c-.26-.09-.78-.09-1.56,0-.78.09-1.38.33-1.81.7-.49.47-.7,1.18-.63,2.14.07,1.1.81,3.26,2.21,6.49Z"/>
      </g>
      <g>
        <path class="cls-1" d="M5.59.56l-.53,23.56-2-.07L3.59.53l2,.03Z"/>
        <path class="cls-1" d="M19.16,0l1.68,1.12c-.26.4-.55,1.87-.88,4.42-.26,2.13-.51,4.9-.77,8.31-.3,3.88-.54,7.7-.7,11.46l-2,.25-5.08-16.83-.81,15.88-2-.11,1.05-21.67,2-.25,5.12,16.93c.14-2.08.28-4.04.42-5.89.26-3.46.53-6.26.81-8.41.35-2.85.74-4.59,1.16-5.22Z"/>
        <path class="cls-1" d="M29.6,2.59h-4.03s0,15.25,0,15.25h4.03v2h-4.03s0,36.22,0,36.22h-2V.56h2s4.03,0,4.03,0v2.03Z"/>
        <path class="cls-1" d="M41.38,22.79l.21,2-8.27.84-1.12-.98V.56h2v22.96s7.19-.74,7.19-.74Z"/>
        <path class="cls-1" d="M53.48.56c0,3.32-.14,6.77-.42,10.34-.63,7.39-1.8,11.88-3.51,13.5-.56.51-1.18.77-1.86.77h-.18c-.75-.05-1.4-.4-1.96-1.05-1.52-1.8-2.24-6.21-2.17-13.22.05-3.41.22-6.66.53-9.75l2,.18c-.3,3.04-.47,6.24-.49,9.61-.07,6.5.49,10.46,1.68,11.89.19.21.37.33.56.35.16,0,.34-.08.53-.25.68-.65,1.27-2.17,1.79-4.56.44-2.01.79-4.55,1.05-7.61.3-3.53.46-6.93.46-10.2h2Z"/>
        <path class="cls-1" d="M62.52,22.93l.14,2-6,.39-.04-.25h-.07v-1.26s-.04-.49-.04-.49h.04s0-22.75,0-22.75h2s4.03,0,4.03,0v2.03h-4.03s0,15.25,0,15.25h3.4v2h-3.4s0,3.33,0,3.33l3.96-.25Z"/>
        <path class="cls-1" d="M75.53,0l1.68,1.12c-.26.4-.55,1.87-.88,4.42-.26,2.13-.51,4.9-.77,8.31-.3,3.88-.54,7.7-.7,11.46l-2,.25-5.08-16.83-.81,15.88-2-.11,1.05-21.67,2-.25,5.12,16.93c.14-2.08.28-4.04.42-5.89.26-3.46.53-6.26.81-8.41C74.72,2.37,75.11.63,75.53,0Z"/>
        <path class="cls-1" d="M83.91,4.45c-1.94,1.64-2.8,4.63-2.59,8.98.14,2.64.57,4.77,1.3,6.38.58,1.29,1.32,2.22,2.21,2.8.58.4,1.24.64,1.98.72.74.08,1.25.09,1.54.02.29-.07.53-.14.72-.21l.7,1.89c-.09.05-.21.09-.35.12-.14.04-.4.08-.79.14-.39.06-.78.09-1.17.09-1.38,0-2.62-.36-3.72-1.09-1.33-.86-2.37-2.2-3.1-4-.74-1.8-1.17-4.05-1.31-6.77-.26-5.02.85-8.57,3.33-10.62.58-.49,1.24-.88,1.96-1.17.72-.29,1.37-.47,1.93-.54.56-.07,1.13-.1,1.72-.09.58.01.99.03,1.21.07.22.03.4.08.54.12l-.21.98-.25.98c-.09-.02-.22-.05-.39-.07-.16-.02-.47-.05-.93-.07-.46-.02-.91,0-1.35.05-.44.06-.94.2-1.49.42-.55.22-1.05.51-1.49.86Z"/>
        <path class="cls-1" d="M98.32,22.93l.14,2-6,.39-.04-.25h-.07v-1.26s-.04-.49-.04-.49h.04s0-22.75,0-22.75h2s4.03,0,4.03,0v2.03h-4.03s0,15.25,0,15.25h3.4v2h-3.4s0,3.33,0,3.33l3.96-.25Z"/>
        <path class="cls-1" d="M18.66,30.82c1.75,1.82,2.51,5.18,2.28,10.06-.3,7.01-1.5,11.27-3.58,12.76-.51.35-1.04.53-1.58.53h-.25c-.77,0-1.52-.3-2.24-.91-1.99-1.68-3.06-5.39-3.23-11.11-.14-5.26.82-8.93,2.87-11.01.47-.47.97-.83,1.51-1.09.54-.26.92-.4,1.16-.44.23-.03.43-.04.6-.02.86,0,1.68.41,2.45,1.23ZM18.94,40.82c.16-3.86-.29-6.57-1.37-8.13-.44-.65-.91-1.02-1.4-1.09-.7.05-1.38.46-2.03,1.23-1.47,1.75-2.15,4.84-2.03,9.26.14,5.14.97,8.36,2.49,9.64.35.28.63.42.84.42l.42.04h-.07c.14,0,.32-.1.54-.3.22-.2.44-.49.65-.88.21-.39.46-.97.75-1.75.29-.78.54-1.9.75-3.37.21-1.46.36-3.15.46-5.07Z"/>
      </g>
    </g>
    <g>
      <path class="cls-1" d="M27.96,72.35h6.6l-8.02,16.36.47.23,18.14-.15-2.4-16.44h7.66l-2.55,16.35c0,.08.27.29.43.24l19.74-.22-9.08-16.37h6.72l9.24,16.43,12.7.02-17.58-16.45h8.01l17.34,19.25H0l17.1-19.25h5.29l-14.07,16.51c.14.34.46.27.77.29,1.43.12,9.84-.21,11.29-.07.14-.03.2-.13.26-.26.55-1.26,2.55-5.78,3.13-6.84l4.2-9.62Z"/>
      <path class="cls-1" d="M0,67.22l.25,9.28h8.39v-4.99h-2.45l-.25,2.79-2.57.03v-4.59h88.62v4.59h-2.82v-2.82h-2.42v4.99h8.26l.36-9.28H0Z"/>
      <path class="cls-1" d="M95.15,62.23v2.08c0,.05.3.14.24.26H0l.24-2.35h94.91Z"/>
    </g>
  </g>
</svg>